<svg width="80" height="40" viewBox="0 0 80 40" fill="none" xmlns="http://www.w3.org/2000/svg">
<rect width="80" height="40" fill="white"/>
<rect x="0.5" y="7.5" width="79" height="25" rx="9.5" stroke="black"/>
<path d="M18.134 24.5V14.28H21.368C22.7213 14.28 23.734 14.4853 24.406 14.896C25.078 15.3067 25.414 15.9273 25.414 16.758C25.414 17.374 25.2413 17.8827 24.896 18.284C24.56 18.676 24.084 18.9327 23.468 19.054V19.082C24.2427 19.2033 24.826 19.4787 25.218 19.908C25.61 20.3373 25.806 20.9067 25.806 21.616C25.806 22.5773 25.442 23.3007 24.714 23.786C23.986 24.262 22.894 24.5 21.438 24.5H18.134ZM21.438 23.002C22.334 23.002 22.9873 22.876 23.398 22.624C23.818 22.372 24.028 21.98 24.028 21.448C24.028 20.9067 23.818 20.5147 23.398 20.272C22.9873 20.02 22.334 19.894 21.438 19.894H19.002V18.438H21.438C22.2127 18.438 22.7773 18.326 23.132 18.102C23.4867 17.878 23.664 17.5373 23.664 17.08C23.664 16.6133 23.4913 16.282 23.146 16.086C22.8007 15.8807 22.2313 15.778 21.438 15.778H19.884V23.002H21.438ZM29.3219 24.64C28.4539 24.64 27.8145 24.402 27.4039 23.926C27.0025 23.45 26.8019 22.708 26.8019 21.7V17.22H28.5239V21.378C28.5239 22.0127 28.6265 22.4793 28.8319 22.778C29.0465 23.0767 29.3872 23.226 29.8539 23.226C30.2085 23.226 30.5212 23.1513 30.7919 23.002C31.0625 22.8527 31.2725 22.652 31.4219 22.4C31.5805 22.148 31.6599 21.8587 31.6599 21.532V17.22H33.3819V24.5H31.7439L31.7299 23.646H31.7019C31.4125 23.9727 31.0719 24.22 30.6799 24.388C30.2972 24.556 29.8445 24.64 29.3219 24.64ZM38.2757 24.64C37.4171 24.64 36.7964 24.4627 36.4137 24.108C36.0311 23.7533 35.8397 23.1747 35.8397 22.372V18.592H34.2157V17.22H35.8397V14.84H37.5757V17.22H40.0257V18.592H37.5757V21.938C37.5757 22.4047 37.6504 22.7313 37.7997 22.918C37.9584 23.0953 38.2337 23.184 38.6257 23.184C38.8311 23.184 39.0457 23.1653 39.2697 23.128C39.4937 23.0907 39.6944 23.0393 39.8717 22.974L40.0257 24.388C39.7084 24.4813 39.4097 24.5467 39.1297 24.584C38.8497 24.6213 38.5651 24.64 38.2757 24.64ZM44.7666 24.64C43.9079 24.64 43.2873 24.4627 42.9046 24.108C42.5219 23.7533 42.3306 23.1747 42.3306 22.372V18.592H40.7066V17.22H42.3306V14.84H44.0666V17.22H46.5166V18.592H44.0666V21.938C44.0666 22.4047 44.1413 22.7313 44.2906 22.918C44.4493 23.0953 44.7246 23.184 45.1166 23.184C45.3219 23.184 45.5366 23.1653 45.7606 23.128C45.9846 23.0907 46.1853 23.0393 46.3626 22.974L46.5166 24.388C46.1993 24.4813 45.9006 24.5467 45.6206 24.584C45.3406 24.6213 45.0559 24.64 44.7666 24.64ZM50.9374 24.64C49.7614 24.64 48.8514 24.3133 48.2074 23.66C47.5728 22.9973 47.2554 22.064 47.2554 20.86C47.2554 19.656 47.5728 18.7273 48.2074 18.074C48.8514 17.4113 49.7614 17.08 50.9374 17.08C52.1134 17.08 53.0234 17.4113 53.6674 18.074C54.3114 18.7273 54.6334 19.656 54.6334 20.86C54.6334 22.064 54.3114 22.9973 53.6674 23.66C53.0234 24.3133 52.1134 24.64 50.9374 24.64ZM50.9374 23.268C51.5814 23.268 52.0714 23.0673 52.4074 22.666C52.7434 22.2553 52.9114 21.6533 52.9114 20.86C52.9114 20.0667 52.7434 19.4693 52.4074 19.068C52.0714 18.6573 51.5814 18.452 50.9374 18.452C50.3028 18.452 49.8128 18.6573 49.4674 19.068C49.1314 19.4693 48.9634 20.0667 48.9634 20.86C48.9634 21.6533 49.1314 22.2553 49.4674 22.666C49.8128 23.0673 50.3028 23.268 50.9374 23.268ZM55.4676 24.5V17.22H57.1056L57.1196 18.074H57.1476C57.437 17.7473 57.7823 17.5 58.1836 17.332C58.5943 17.164 59.0656 17.08 59.5976 17.08C60.4843 17.08 61.1376 17.318 61.5576 17.794C61.9776 18.27 62.1876 19.012 62.1876 20.02V24.5H60.4796V20.342C60.4796 19.7073 60.363 19.2407 60.1296 18.942C59.9056 18.6433 59.551 18.494 59.0656 18.494C58.7016 18.494 58.375 18.5687 58.0856 18.718C57.8056 18.8673 57.5863 19.068 57.4276 19.32C57.269 19.5627 57.1896 19.852 57.1896 20.188V24.5H55.4676Z" fill="black"/>
</svg>
