<svg width="40" height="40" viewBox="0 0 40 40" fill="none" xmlns="http://www.w3.org/2000/svg">
<g clip-path="url(#clip0_66_49)">
<rect width="40" height="40" fill="white"/>
<circle cx="20.5" cy="19.5" r="17.5" fill="black"/>
<path d="M22.3004 20.4811C22.2746 20.3809 22.2796 20.2753 22.3146 20.178C22.3496 20.0807 22.413 19.9962 22.4967 19.9354C22.5803 19.8747 22.6803 19.8404 22.7837 19.8372C22.887 19.834 22.989 19.8619 23.0762 19.9174L38.4785 29.2121C38.5721 29.2687 38.6456 29.3534 38.6883 29.4541C38.7311 29.5548 38.7411 29.6665 38.7168 29.7732C38.6926 29.8799 38.6353 29.9762 38.5532 30.0486C38.4711 30.1209 38.3683 30.1655 38.2594 30.1761L31.7013 30.8038C31.3308 30.8389 30.9765 30.9726 30.6752 31.1911C30.3739 31.4095 30.1366 31.7046 29.988 32.0458L27.3652 38.0912C27.3215 38.1915 27.2472 38.2755 27.1531 38.3313C27.0589 38.387 26.9496 38.4117 26.8406 38.4018C26.7316 38.3919 26.6285 38.3479 26.546 38.2761C26.4634 38.2043 26.4055 38.1083 26.3806 38.0017L22.3004 20.4811Z" fill="white" stroke="black" stroke-linecap="round" stroke-linejoin="round"/>
</g>
<defs>
<clipPath id="clip0_66_49">
<rect width="40" height="40" fill="white"/>
</clipPath>
</defs>
</svg>
