<svg width="120" height="40" viewBox="0 0 120 40" fill="none" xmlns="http://www.w3.org/2000/svg">
<rect width="120" height="40" fill="white"/>
<path d="M5 7.5H37C38.933 7.5 40.5 9.067 40.5 11V35.5H1.5V11C1.5 9.067 3.067 7.5 5 7.5Z" fill="black" stroke="black"/>
<rect x="40.5" y="13.5" width="39" height="22" stroke="black"/>
<rect x="79.5" y="13.5" width="39" height="22" stroke="black"/>
<path d="M12.97 29V22.191H10.319V20.97H17.051V22.191H14.389V29H12.97ZM16.2177 29L19.0667 20.97H20.9257L23.7637 29H22.2567L20.0017 22.136H19.9797L17.7247 29H16.2177ZM17.7797 27.075V25.854H22.2127V27.075H17.7797ZM24.5662 29V20.97H27.1072C28.1706 20.97 28.9662 21.1313 29.4942 21.454C30.0222 21.7767 30.2862 22.2643 30.2862 22.917C30.2862 23.401 30.1506 23.8007 29.8792 24.116C29.6152 24.424 29.2412 24.6257 28.7572 24.721V24.743C29.3659 24.8383 29.8242 25.0547 30.1322 25.392C30.4402 25.7293 30.5942 26.1767 30.5942 26.734C30.5942 27.4893 30.3082 28.0577 29.7362 28.439C29.1642 28.813 28.3062 29 27.1622 29H24.5662ZM27.1622 27.823C27.8662 27.823 28.3796 27.724 28.7022 27.526C29.0322 27.328 29.1972 27.02 29.1972 26.602C29.1972 26.1767 29.0322 25.8687 28.7022 25.678C28.3796 25.48 27.8662 25.381 27.1622 25.381H25.2482V24.237H27.1622C27.7709 24.237 28.2146 24.149 28.4932 23.973C28.7719 23.797 28.9112 23.5293 28.9112 23.17C28.9112 22.8033 28.7756 22.543 28.5042 22.389C28.2329 22.2277 27.7856 22.147 27.1622 22.147H25.9412V27.823H27.1622Z" fill="white"/>
<path d="M51.97 29V22.191H49.319V20.97H56.051V22.191H53.389V29H51.97ZM55.2177 29L58.0667 20.97H59.9257L62.7637 29H61.2567L59.0017 22.136H58.9797L56.7247 29H55.2177ZM56.7797 27.075V25.854H61.2127V27.075H56.7797ZM63.5662 29V20.97H66.1072C67.1706 20.97 67.9662 21.1313 68.4942 21.454C69.0222 21.7767 69.2862 22.2643 69.2862 22.917C69.2862 23.401 69.1506 23.8007 68.8792 24.116C68.6152 24.424 68.2412 24.6257 67.7572 24.721V24.743C68.3659 24.8383 68.8242 25.0547 69.1322 25.392C69.4402 25.7293 69.5942 26.1767 69.5942 26.734C69.5942 27.4893 69.3082 28.0577 68.7362 28.439C68.1642 28.813 67.3062 29 66.1622 29H63.5662ZM66.1622 27.823C66.8662 27.823 67.3796 27.724 67.7022 27.526C68.0322 27.328 68.1972 27.02 68.1972 26.602C68.1972 26.1767 68.0322 25.8687 67.7022 25.678C67.3796 25.48 66.8662 25.381 66.1622 25.381H64.2482V24.237H66.1622C66.7709 24.237 67.2146 24.149 67.4932 23.973C67.7719 23.797 67.9112 23.5293 67.9112 23.17C67.9112 22.8033 67.7756 22.543 67.5042 22.389C67.2329 22.2277 66.7856 22.147 66.1622 22.147H64.9412V27.823H66.1622Z" fill="black"/>
<path d="M90.97 29V22.191H88.319V20.97H95.051V22.191H92.389V29H90.97ZM94.2177 29L97.0667 20.97H98.9257L101.764 29H100.257L98.0017 22.136H97.9797L95.7247 29H94.2177ZM95.7797 27.075V25.854H100.213V27.075H95.7797ZM102.566 29V20.97H105.107C106.171 20.97 106.966 21.1313 107.494 21.454C108.022 21.7767 108.286 22.2643 108.286 22.917C108.286 23.401 108.151 23.8007 107.879 24.116C107.615 24.424 107.241 24.6257 106.757 24.721V24.743C107.366 24.8383 107.824 25.0547 108.132 25.392C108.44 25.7293 108.594 26.1767 108.594 26.734C108.594 27.4893 108.308 28.0577 107.736 28.439C107.164 28.813 106.306 29 105.162 29H102.566ZM105.162 27.823C105.866 27.823 106.38 27.724 106.702 27.526C107.032 27.328 107.197 27.02 107.197 26.602C107.197 26.1767 107.032 25.8687 106.702 25.678C106.38 25.48 105.866 25.381 105.162 25.381H103.248V24.237H105.162C105.771 24.237 106.215 24.149 106.493 23.973C106.772 23.797 106.911 23.5293 106.911 23.17C106.911 22.8033 106.776 22.543 106.504 22.389C106.233 22.2277 105.786 22.147 105.162 22.147H103.941V27.823H105.162Z" fill="black"/>
</svg>
